<svg version="1.1" id="Layer_1" xmlns="http://www.w3.org/2000/svg" xmlns:xlink="http://www.w3.org/1999/xlink" x="0px" y="0px"
	 width="100%" viewBox="0 0 1885 2196" enable-background="new 0 0 1885 2196" xml:space="preserve">
<path fill="#31A394" opacity="1.000000" stroke="none" 
	d="
M983.000000,1.000001 
	C990.354248,1.000000 997.708496,1.000000 1005.743652,1.380148 
	C1027.983398,3.172792 1049.570435,4.258966 1071.089600,6.126880 
	C1082.959839,7.157237 1094.937500,8.602014 1106.475830,11.445514 
	C1127.785156,16.696888 1149.046753,22.386309 1169.883789,29.244017 
	C1192.568115,36.709702 1213.889160,47.443653 1234.004028,60.452938 
	C1255.737549,74.508987 1276.086426,90.210121 1293.240601,109.751854 
	C1300.085938,117.549805 1307.318970,125.063019 1313.572021,133.314682 
	C1332.221802,157.925491 1347.081299,184.806412 1358.616577,213.390518 
	C1374.117310,251.800751 1383.896484,291.825592 1389.894409,332.746155 
	C1392.438110,350.098969 1394.366821,367.564667 1395.880981,385.039185 
	C1397.376709,402.300781 1398.123535,419.632172 1398.956421,436.944580 
	C1399.521973,448.700653 1399.486328,460.485870 1400.069702,472.240692 
	C1400.435913,479.618774 1400.819092,487.095001 1402.305054,494.298096 
	C1405.466797,509.623199 1407.374146,524.787903 1406.292480,540.629578 
	C1404.884399,561.251099 1400.305664,580.951599 1394.093018,600.476624 
	C1392.828125,604.452454 1392.243896,608.762878 1392.072876,612.948730 
	C1391.247437,633.143433 1390.992798,653.365845 1389.892456,673.543335 
	C1389.159912,686.976135 1387.658569,700.390381 1385.933838,713.739685 
	C1383.966187,728.969910 1381.542236,744.147705 1379.008423,759.296692 
	C1373.839478,790.201050 1366.267212,820.575867 1356.166382,850.189331 
	C1348.130493,873.748535 1338.749023,896.867554 1329.419678,919.961792 
	C1318.496948,946.999939 1304.057007,972.261902 1288.974854,997.156616 
	C1287.781494,999.126526 1286.685791,1001.155640 1285.412842,1003.388489 
	C1288.270752,1004.081543 1290.179321,1004.499573 1292.063354,1005.007812 
	C1324.117065,1013.655029 1356.304565,1021.844238 1388.168457,1031.142456 
	C1407.836670,1036.881836 1427.232300,1043.741699 1446.349731,1051.134155 
	C1469.746094,1060.181274 1493.120239,1069.473877 1515.776733,1080.196655 
	C1541.166870,1092.213257 1566.234253,1105.102051 1590.527832,1119.187988 
	C1612.084961,1131.687256 1633.120728,1145.371216 1653.051025,1160.313599 
	C1674.842896,1176.651611 1695.447754,1194.642334 1715.890259,1212.682983 
	C1727.065552,1222.545532 1737.114624,1233.746826 1747.161133,1244.808105 
	C1757.331055,1256.005005 1767.419922,1267.356567 1776.568726,1279.382324 
	C1793.380859,1301.481323 1808.760010,1324.560425 1822.097534,1349.002563 
	C1835.193115,1373.000732 1846.724731,1397.685791 1855.900269,1423.401489 
	C1866.374756,1452.757202 1874.892700,1482.699585 1878.979248,1513.693604 
	C1881.336548,1531.573242 1883.009399,1549.543091 1885.035278,1567.467163 
	C1885.133545,1568.336670 1885.668457,1569.156860 1886.000000,1570.000000 
	C1886.000000,1589.020874 1886.000000,1608.041870 1885.621582,1627.740723 
	C1883.836792,1641.471436 1883.292725,1654.689941 1880.825195,1667.538940 
	C1876.960815,1687.661011 1872.704468,1707.797852 1866.981445,1727.453003 
	C1857.088989,1761.427246 1842.150757,1793.291138 1824.151123,1823.805908 
	C1807.711426,1851.676147 1788.646118,1877.583862 1767.418457,1901.876587 
	C1756.675293,1914.171021 1744.993652,1925.683838 1733.277100,1937.077759 
	C1722.625610,1947.435547 1711.793945,1957.699829 1700.253418,1967.030518 
	C1681.677368,1982.049438 1662.881104,1996.870850 1643.397705,2010.674683 
	C1616.869141,2029.470215 1588.733521,2045.819702 1559.739014,2060.508545 
	C1537.886108,2071.579346 1515.707642,2082.096436 1493.208984,2091.779053 
	C1470.487183,2101.558350 1447.405151,2110.605957 1424.089844,2118.871094 
	C1400.318604,2127.297852 1376.233276,2134.947266 1351.986938,2141.895020 
	C1327.435425,2148.930176 1302.552734,2154.828857 1277.746826,2160.948975 
	C1265.572998,2163.952393 1253.277954,2166.497070 1240.977051,2168.944336 
	C1228.501709,2171.426270 1215.973877,2173.663818 1203.427979,2175.764160 
	C1191.982422,2177.680420 1180.495850,2179.367188 1169.001953,2180.973633 
	C1158.294922,2182.470459 1147.554321,2183.726318 1136.828857,2185.090820 
	C1126.596558,2186.392334 1116.382568,2187.868652 1106.126953,2188.947510 
	C1097.287598,2189.877441 1088.401733,2190.368652 1079.534912,2191.033447 
	C1061.799316,2192.363037 1044.073120,2193.851807 1026.322388,2194.937012 
	C1015.244446,2195.614746 1004.127991,2195.658691 993.031189,2196.052246 
	C992.343811,2196.076416 991.676636,2196.670898 991.000000,2197.000000 
	C958.312439,2197.000000 925.624878,2197.000000 892.256348,2196.620117 
	C880.982239,2195.826904 870.389282,2195.405762 859.795654,2195.002686 
	C850.695129,2194.656006 841.591064,2194.387695 832.493774,2193.970947 
	C827.720154,2193.752441 822.948975,2193.380127 818.191895,2192.920654 
	C805.115784,2191.658203 792.049377,2190.296143 778.975952,2189.006348 
	C768.346008,2187.957031 757.676636,2187.225586 747.087585,2185.864258 
	C733.957642,2184.176270 720.889282,2182.006104 707.800476,2180.003418 
	C692.451172,2177.655518 677.034729,2175.657715 661.781006,2172.795654 
	C640.800842,2168.859375 619.736816,2165.067871 599.084229,2159.754395 
	C563.626465,2150.632080 528.208923,2141.190430 493.235992,2130.388672 
	C453.528595,2118.125000 414.553162,2103.541992 377.104645,2085.399170 
	C347.555603,2071.083252 318.038788,2056.551514 289.455811,2040.434082 
	C261.151764,2024.473877 234.041428,2006.361694 209.027176,1985.450195 
	C189.712723,1969.303467 170.474808,1953.031738 151.867828,1936.085449 
	C141.618408,1926.750977 132.526886,1916.099609 123.306091,1905.693848 
	C114.043320,1895.240601 104.630424,1884.818970 96.434761,1873.546387 
	C85.217361,1858.117676 74.736069,1842.119507 64.572861,1825.966675 
	C49.126080,1801.416504 36.948135,1775.196655 26.987314,1747.981201 
	C18.517815,1724.840332 11.430676,1701.273193 7.966912,1676.800781 
	C5.695152,1660.750244 3.981046,1644.620972 1.974667,1628.532349 
	C1.825131,1627.333008 1.332911,1626.176392 0.999998,1625.000000 
	C1.000000,1608.312378 1.000000,1591.624878 1.379659,1574.257080 
	C2.834336,1561.116333 3.367119,1548.578979 5.114671,1536.213379 
	C7.580054,1518.768188 10.607756,1501.384033 13.995519,1484.091431 
	C20.765532,1449.534668 32.559643,1416.528198 47.259243,1384.672485 
	C64.504311,1347.300415 85.719002,1312.251099 111.396744,1279.911743 
	C127.605675,1259.497925 144.538910,1239.804565 163.574219,1222.005859 
	C177.081421,1209.376221 190.552231,1196.642944 204.831238,1184.920654 
	C220.622040,1171.957153 237.059494,1159.735962 253.675568,1147.833984 
	C279.332458,1129.456055 306.336609,1113.108398 334.552948,1099.031616 
	C361.881439,1085.397705 389.452881,1072.075195 417.678497,1060.465942 
	C444.444336,1049.457031 471.990082,1040.200195 499.578949,1031.380737 
	C522.660461,1024.002075 546.296326,1018.355896 569.693359,1011.966858 
	C580.322632,1009.064331 590.968079,1006.220703 601.731506,1003.316528 
	C601.372192,1002.126953 601.308777,1001.277222 600.899658,1000.654663 
	C584.965515,976.408997 571.371643,950.875549 559.813416,924.307251 
	C551.757874,905.790222 543.538818,887.238464 537.212708,868.100647 
	C528.587769,842.008301 521.047729,815.507874 514.279175,788.868164 
	C509.467224,769.929260 506.328278,750.532410 503.146149,731.224060 
	C501.094513,718.775085 500.120209,706.133423 499.014465,693.547241 
	C497.501312,676.323547 496.066315,659.084900 495.098755,641.824524 
	C494.549286,632.022583 495.018097,622.164551 494.987152,612.331970 
	C494.978760,609.676025 495.464111,606.795654 494.627472,604.400940 
	C488.419067,586.630066 483.035095,568.660583 481.969360,549.752380 
	C481.297974,537.840820 480.468048,525.825500 481.316986,513.971802 
	C482.212189,501.471893 485.576324,489.165222 486.838989,476.670746 
	C488.183350,463.368073 488.259613,449.940369 489.015991,436.574402 
	C489.938995,420.264496 490.715851,403.938904 492.071411,387.663025 
	C493.364929,372.131958 494.756592,356.569244 497.125427,341.177460 
	C500.225891,321.031677 503.739563,300.910034 508.136780,281.012512 
	C514.871704,250.536667 525.253357,221.186264 538.589294,192.966385 
	C552.517090,163.494095 570.376526,136.486145 592.304382,112.381271 
	C607.535217,95.638283 624.522156,80.735252 643.276917,67.889687 
	C660.599915,56.024769 678.621399,45.375683 698.103516,37.605839 
	C715.171265,30.798866 732.425659,24.148174 750.107239,19.279013 
	C768.134888,14.314567 786.719116,11.231976 805.182861,8.037790 
	C818.404968,5.750398 831.795654,4.211371 845.175110,3.127861 
	C856.893677,2.178842 868.701965,2.348825 880.468323,1.955023 
	C881.321899,1.926454 882.156555,1.331573 883.000000,0.999995 
	C890.020935,1.000000 897.041931,1.000000 904.743774,1.380147 
	C916.679260,2.173239 927.933777,2.910646 939.188660,2.916630 
	C953.115906,2.924035 967.043823,2.337816 980.969788,1.947392 
	C981.654846,1.928186 982.323608,1.329080 983.000000,1.000001 
M1831.420776,1617.856079 
	C1831.473511,1617.726074 1831.586792,1617.585693 1831.566650,1617.468262 
	C1831.521118,1617.202271 1831.409912,1616.947632 1831.413330,1615.874023 
	C1831.368164,1604.339233 1831.322998,1592.804321 1831.436157,1580.924194 
	C1831.319824,1580.578857 1831.203369,1580.233643 1831.106323,1578.971802 
	C1830.567261,1553.935669 1827.511475,1529.154419 1822.706665,1504.629150 
	C1804.253052,1410.436523 1760.068970,1329.813843 1693.383545,1261.245728 
	C1659.655029,1226.564941 1621.827515,1196.921143 1580.927734,1171.161621 
	C1511.256348,1127.281250 1435.966187,1096.197021 1357.190552,1073.082520 
	C1348.459717,1070.520630 1339.664917,1068.176758 1330.681152,1065.670898 
	C1330.344360,1067.082520 1330.121826,1067.859985 1329.975098,1068.651489 
	C1323.219727,1105.120605 1316.851562,1141.666504 1309.643555,1178.045898 
	C1293.706421,1258.481079 1275.504517,1338.411133 1254.998169,1417.812012 
	C1223.700562,1538.997070 1187.392212,1658.616089 1142.922974,1775.669434 
	C1120.462280,1834.790894 1097.371216,1893.768921 1068.046997,1949.821045 
	C1035.109863,2012.778931 999.777161,2074.483398 965.535889,2136.760254 
	C963.501160,2140.460938 961.903076,2144.401611 959.584595,2149.330078 
	C966.898743,2148.881104 973.131531,2148.401123 979.373413,2148.134521 
	C996.274536,2147.411621 1013.221069,2147.312256 1030.074219,2145.999512 
	C1063.587402,2143.389160 1097.113647,2140.705566 1130.519043,2137.008545 
	C1184.474243,2131.037354 1237.747314,2120.984131 1290.457153,2107.997314 
	C1374.622070,2087.260254 1455.813477,2058.471924 1532.544678,2017.829834 
	C1599.203857,1982.522461 1660.458130,1939.832764 1712.317261,1884.525757 
	C1749.784302,1844.567383 1780.381348,1800.038574 1801.595337,1749.367920 
	C1819.167847,1707.395020 1829.583862,1663.760742 1831.420776,1617.856079 
M55.538475,1598.856445 
	C55.485256,1600.246216 55.432034,1601.636108 55.253094,1603.297241 
	C55.232609,1603.625366 55.363251,1603.875732 55.820389,1604.964355 
	C55.846569,1641.865234 61.715740,1677.878052 72.556343,1713.088867 
	C95.134460,1786.424072 136.678116,1847.983887 190.588837,1901.667114 
	C222.330536,1933.274902 257.477539,1960.745483 295.194946,1984.892700 
	C364.910828,2029.525391 440.167847,2062.077637 518.876404,2087.006836 
	C577.637512,2105.618408 637.491882,2119.720459 698.398865,2129.139893 
	C725.517456,2133.333740 752.749268,2136.900635 780.014099,2140.012451 
	C804.946167,2142.857666 829.966614,2145.057373 854.997070,2146.862793 
	C870.062012,2147.949707 885.221436,2147.708984 900.336243,2148.138672 
	C902.966797,2148.213379 905.582458,2148.822998 908.212708,2148.891846 
	C913.067505,2149.018799 917.927917,2148.927979 923.708801,2148.927979 
	C922.282349,2146.775635 921.681580,2145.802002 921.015991,2144.874756 
	C912.763489,2133.376953 904.181641,2122.100342 896.295532,2110.356689 
	C855.321350,2049.338623 822.294128,1984.040039 792.949463,1916.815918 
	C740.869934,1797.510010 700.828979,1674.029297 665.977783,1548.775024 
	C639.717957,1454.397949 616.593323,1359.243042 596.752991,1263.317993 
	C585.202576,1207.473389 574.737427,1151.404053 563.826111,1095.427734 
	C561.930359,1085.701904 560.244934,1075.935303 558.405029,1065.874146 
	C556.406433,1066.328735 554.965942,1066.598145 553.557739,1066.985107 
	C482.061279,1086.629761 413.239746,1112.987305 348.333679,1149.082886 
	C277.491638,1188.479492 214.386307,1237.403564 163.044937,1300.628418 
	C117.670197,1356.505615 85.547676,1419.059204 68.748154,1489.252197 
	C60.275055,1524.655396 55.663639,1560.519287 55.521854,1597.169189 
	C55.360764,1597.457153 55.364792,1597.740967 55.538475,1598.856445 
M1226.799927,996.289795 
	C1244.390381,970.923401 1259.640503,944.204468 1272.865967,916.327515 
	C1298.619629,862.043396 1316.686768,805.214050 1326.599243,746.041748 
	C1331.786011,715.079468 1334.163452,683.645874 1337.737915,652.416931 
	C1337.876465,651.205627 1337.494019,649.803101 1336.967041,648.669739 
	C1334.637573,643.659790 1330.882568,638.935242 1329.989014,633.706604 
	C1327.390381,618.497498 1324.738281,603.131409 1324.278198,587.761963 
	C1323.587280,564.692017 1324.031128,541.527405 1325.309692,518.476074 
	C1326.645020,494.400116 1329.674194,470.421906 1331.692871,446.378296 
	C1332.624756,435.279755 1336.734741,424.207336 1332.346558,413.077240 
	C1181.120361,395.601532 1055.848755,324.308746 944.441833,225.500137 
	C929.273071,238.214645 914.553955,251.248871 899.118103,263.370300 
	C831.704224,316.309082 758.374146,358.680389 676.951599,386.339264 
	C639.504822,399.059753 601.181458,407.951233 561.812378,412.204132 
	C560.162415,412.382355 557.457520,414.080597 557.334778,415.283966 
	C556.526123,423.211670 555.505554,431.247803 556.007568,439.156342 
	C558.009094,470.686005 561.397339,502.149048 562.611328,533.700623 
	C563.595337,559.277405 562.942444,584.986572 561.527405,610.554565 
	C560.896057,621.963989 557.397156,633.442993 553.619629,644.342896 
	C552.002686,649.008728 550.921326,653.296265 551.058655,658.035889 
	C551.110779,659.835205 551.778320,661.611633 551.886230,663.415222 
	C553.996338,698.687134 558.682800,733.607727 565.926880,768.194031 
	C582.747314,848.502014 611.882935,923.762695 658.023865,991.968079 
	C691.625793,1041.638306 732.435608,1084.118896 783.482971,1116.246216 
	C827.563110,1143.988525 875.579163,1160.040283 927.459778,1163.765625 
	C942.137146,1164.819458 957.087280,1164.022461 971.774719,1162.626465 
	C1017.594177,1158.271484 1059.950562,1143.210938 1099.246094,1119.408447 
	C1150.851685,1088.149170 1192.005005,1046.024902 1226.799927,996.289795 
M855.317871,1561.820190 
	C860.092224,1544.519043 864.873535,1527.219849 869.639282,1509.916260 
	C877.136658,1482.695190 886.627014,1455.947876 889.536499,1427.626953 
	C891.826111,1405.340454 885.699280,1386.956177 865.542297,1374.585083 
	C850.536255,1365.375244 837.667847,1353.497803 826.165222,1340.184326 
	C800.887634,1310.927368 784.446899,1277.041016 773.991516,1240.060913 
	C772.441040,1234.577148 771.285950,1228.981567 769.727661,1222.524902 
	C772.955017,1224.205078 775.162598,1225.337402 777.355164,1226.498169 
	C811.412537,1244.523682 846.546509,1260.073120 884.013367,1269.399658 
	C902.664917,1274.042480 921.748718,1277.501709 940.845642,1279.578003 
	C950.986206,1280.680664 961.653748,1278.173218 971.943115,1276.455078 
	C1013.462280,1269.521851 1052.437256,1254.883545 1090.139404,1236.573242 
	C1099.024536,1232.258179 1107.787109,1227.690552 1117.686890,1222.693604 
	C1115.971924,1229.541870 1114.736572,1235.367920 1113.052856,1241.061401 
	C1096.466431,1297.146973 1068.134399,1344.972656 1017.747986,1377.567627 
	C1004.534485,1386.115356 998.519897,1399.199463 997.869690,1414.849243 
	C997.204346,1430.863892 1000.445007,1446.335205 1004.579468,1461.610596 
	C1014.740845,1499.153320 1025.780762,1536.467529 1035.384277,1574.149780 
	C1049.888184,1631.059937 1056.726440,1689.104370 1057.717041,1747.771729 
	C1058.060791,1768.131104 1056.647949,1788.520996 1055.992554,1808.895508 
	C1055.720947,1817.334839 1055.485107,1825.780151 1054.940063,1834.203857 
	C1054.598511,1839.481812 1053.666748,1844.719482 1053.109619,1849.987061 
	C1053.009766,1850.930664 1053.447021,1851.931152 1053.636230,1852.905273 
	C1112.203613,1717.839478 1156.945435,1578.396484 1194.317017,1436.490723 
	C1231.657715,1294.702271 1262.366211,1151.533813 1283.442627,1006.316223 
	C1280.845703,1008.624695 1279.015869,1011.142578 1277.302246,1013.737366 
	C1242.683594,1066.155884 1200.363525,1111.145752 1148.485962,1146.829224 
	C1092.409668,1185.400513 1030.460815,1207.567871 962.455261,1211.801025 
	C947.101074,1212.756836 931.553467,1211.917480 916.176208,1210.793091 
	C902.937500,1209.825073 889.694214,1207.885132 876.660522,1205.320435 
	C806.194580,1191.453979 745.709839,1158.027954 692.642883,1110.377930 
	C660.103943,1081.160522 632.305542,1047.879272 608.387329,1011.312317 
	C607.274902,1009.611572 606.047913,1007.985718 604.874207,1006.325012 
	C606.533264,1021.901123 608.409363,1037.092163 611.247925,1052.101196 
	C624.781494,1123.660767 637.653381,1195.363037 652.499329,1266.652588 
	C673.755066,1368.721558 699.121826,1469.827759 728.061523,1570.011597 
	C758.067505,1673.886719 792.035278,1776.395020 833.983826,1876.139526 
	C834.974609,1878.495483 836.046265,1880.817261 837.080261,1883.155029 
	C837.470520,1883.045288 837.860779,1882.935547 838.250977,1882.825806 
	C837.678955,1877.790405 836.961853,1872.766602 836.559021,1867.717651 
	C834.330627,1839.783325 831.134216,1811.873779 830.305115,1783.895386 
	C829.533752,1757.863159 830.945374,1731.739136 832.108398,1705.687256 
	C832.781677,1690.606445 834.502747,1675.543335 836.383057,1660.551270 
	C840.526001,1627.518677 847.019714,1594.910889 855.317871,1561.820190 
z"/>
<path fill="#FFFFFF" opacity="1.000000" stroke="none" 
	d="
M882.531372,0.999995 
	C882.156555,1.331573 881.321899,1.926454 880.468323,1.955023 
	C868.701965,2.348825 856.893677,2.178842 845.175110,3.127861 
	C831.795654,4.211371 818.404968,5.750398 805.182861,8.037790 
	C786.719116,11.231976 768.134888,14.314567 750.107239,19.279013 
	C732.425659,24.148174 715.171265,30.798866 698.103516,37.605839 
	C678.621399,45.375683 660.599915,56.024769 643.276917,67.889687 
	C624.522156,80.735252 607.535217,95.638283 592.304382,112.381271 
	C570.376526,136.486145 552.517090,163.494095 538.589294,192.966385 
	C525.253357,221.186264 514.871704,250.536667 508.136780,281.012512 
	C503.739563,300.910034 500.225891,321.031677 497.125427,341.177460 
	C494.756592,356.569244 493.364929,372.131958 492.071411,387.663025 
	C490.715851,403.938904 489.938995,420.264496 489.015991,436.574402 
	C488.259613,449.940369 488.183350,463.368073 486.838989,476.670746 
	C485.576324,489.165222 482.212189,501.471893 481.316986,513.971802 
	C480.468048,525.825500 481.297974,537.840820 481.969360,549.752380 
	C483.035095,568.660583 488.419067,586.630066 494.627472,604.400940 
	C495.464111,606.795654 494.978760,609.676025 494.987152,612.331970 
	C495.018097,622.164551 494.549286,632.022583 495.098755,641.824524 
	C496.066315,659.084900 497.501312,676.323547 499.014465,693.547241 
	C500.120209,706.133423 501.094513,718.775085 503.146149,731.224060 
	C506.328278,750.532410 509.467224,769.929260 514.279175,788.868164 
	C521.047729,815.507874 528.587769,842.008301 537.212708,868.100647 
	C543.538818,887.238464 551.757874,905.790222 559.813416,924.307251 
	C571.371643,950.875549 584.965515,976.408997 600.899658,1000.654663 
	C601.308777,1001.277222 601.372192,1002.126953 601.731506,1003.316528 
	C590.968079,1006.220703 580.322632,1009.064331 569.693359,1011.966858 
	C546.296326,1018.355896 522.660461,1024.002075 499.578949,1031.380737 
	C471.990082,1040.200195 444.444336,1049.457031 417.678497,1060.465942 
	C389.452881,1072.075195 361.881439,1085.397705 334.552948,1099.031616 
	C306.336609,1113.108398 279.332458,1129.456055 253.675568,1147.833984 
	C237.059494,1159.735962 220.622040,1171.957153 204.831238,1184.920654 
	C190.552231,1196.642944 177.081421,1209.376221 163.574219,1222.005859 
	C144.538910,1239.804565 127.605675,1259.497925 111.396744,1279.911743 
	C85.719002,1312.251099 64.504311,1347.300415 47.259243,1384.672485 
	C32.559643,1416.528198 20.765532,1449.534668 13.995519,1484.091431 
	C10.607756,1501.384033 7.580054,1518.768188 5.114671,1536.213379 
	C3.367119,1548.578979 2.834336,1561.116333 1.379659,1573.788574 
	C1.000000,1049.759766 1.000000,525.519592 1.000000,1.000000 
	C294.687500,1.000000 588.375122,1.000000 882.531372,0.999995 
z"/>
<path fill="#FFFFFF" opacity="1.000000" stroke="none" 
	d="
M1886.000000,1569.531372 
	C1885.668457,1569.156860 1885.133545,1568.336670 1885.035278,1567.467163 
	C1883.009399,1549.543091 1881.336548,1531.573242 1878.979248,1513.693604 
	C1874.892700,1482.699585 1866.374756,1452.757202 1855.900269,1423.401489 
	C1846.724731,1397.685791 1835.193115,1373.000732 1822.097534,1349.002563 
	C1808.760010,1324.560425 1793.380859,1301.481323 1776.568726,1279.382324 
	C1767.419922,1267.356567 1757.331055,1256.005005 1747.161133,1244.808105 
	C1737.114624,1233.746826 1727.065552,1222.545532 1715.890259,1212.682983 
	C1695.447754,1194.642334 1674.842896,1176.651611 1653.051025,1160.313599 
	C1633.120728,1145.371216 1612.084961,1131.687256 1590.527832,1119.187988 
	C1566.234253,1105.102051 1541.166870,1092.213257 1515.776733,1080.196655 
	C1493.120239,1069.473877 1469.746094,1060.181274 1446.349731,1051.134155 
	C1427.232300,1043.741699 1407.836670,1036.881836 1388.168457,1031.142456 
	C1356.304565,1021.844238 1324.117065,1013.655029 1292.063354,1005.007812 
	C1290.179321,1004.499573 1288.270752,1004.081543 1285.412842,1003.388489 
	C1286.685791,1001.155640 1287.781494,999.126526 1288.974854,997.156616 
	C1304.057007,972.261902 1318.496948,946.999939 1329.419678,919.961792 
	C1338.749023,896.867554 1348.130493,873.748535 1356.166382,850.189331 
	C1366.267212,820.575867 1373.839478,790.201050 1379.008423,759.296692 
	C1381.542236,744.147705 1383.966187,728.969910 1385.933838,713.739685 
	C1387.658569,700.390381 1389.159912,686.976135 1389.892456,673.543335 
	C1390.992798,653.365845 1391.247437,633.143433 1392.072876,612.948730 
	C1392.243896,608.762878 1392.828125,604.452454 1394.093018,600.476624 
	C1400.305664,580.951599 1404.884399,561.251099 1406.292480,540.629578 
	C1407.374146,524.787903 1405.466797,509.623199 1402.305054,494.298096 
	C1400.819092,487.095001 1400.435913,479.618774 1400.069702,472.240692 
	C1399.486328,460.485870 1399.521973,448.700653 1398.956421,436.944580 
	C1398.123535,419.632172 1397.376709,402.300781 1395.880981,385.039185 
	C1394.366821,367.564667 1392.438110,350.098969 1389.894409,332.746155 
	C1383.896484,291.825592 1374.117310,251.800751 1358.616577,213.390518 
	C1347.081299,184.806412 1332.221802,157.925491 1313.572021,133.314682 
	C1307.318970,125.063019 1300.085938,117.549805 1293.240601,109.751854 
	C1276.086426,90.210121 1255.737549,74.508987 1234.004028,60.452938 
	C1213.889160,47.443653 1192.568115,36.709702 1169.883789,29.244017 
	C1149.046753,22.386309 1127.785156,16.696888 1106.475830,11.445514 
	C1094.937500,8.602014 1082.959839,7.157237 1071.089600,6.126880 
	C1049.570435,4.258966 1027.983398,3.172792 1006.212280,1.380148 
	C1299.281006,1.000000 1592.562134,1.000000 1886.000000,1.000000 
	C1886.000000,523.687561 1886.000000,1046.375122 1886.000000,1569.531372 
z"/>
<path fill="#FFFFFF" opacity="1.000000" stroke="none" 
	d="
M991.468628,2197.000000 
	C991.676636,2196.670898 992.343811,2196.076416 993.031189,2196.052246 
	C1004.127991,2195.658691 1015.244446,2195.614746 1026.322388,2194.937012 
	C1044.073120,2193.851807 1061.799316,2192.363037 1079.534912,2191.033447 
	C1088.401733,2190.368652 1097.287598,2189.877441 1106.126953,2188.947510 
	C1116.382568,2187.868652 1126.596558,2186.392334 1136.828857,2185.090820 
	C1147.554321,2183.726318 1158.294922,2182.470459 1169.001953,2180.973633 
	C1180.495850,2179.367188 1191.982422,2177.680420 1203.427979,2175.764160 
	C1215.973877,2173.663818 1228.501709,2171.426270 1240.977051,2168.944336 
	C1253.277954,2166.497070 1265.572998,2163.952393 1277.746826,2160.948975 
	C1302.552734,2154.828857 1327.435425,2148.930176 1351.986938,2141.895020 
	C1376.233276,2134.947266 1400.318604,2127.297852 1424.089844,2118.871094 
	C1447.405151,2110.605957 1470.487183,2101.558350 1493.208984,2091.779053 
	C1515.707642,2082.096436 1537.886108,2071.579346 1559.739014,2060.508545 
	C1588.733521,2045.819702 1616.869141,2029.470215 1643.397705,2010.674683 
	C1662.881104,1996.870850 1681.677368,1982.049438 1700.253418,1967.030518 
	C1711.793945,1957.699829 1722.625610,1947.435547 1733.277100,1937.077759 
	C1744.993652,1925.683838 1756.675293,1914.171021 1767.418457,1901.876587 
	C1788.646118,1877.583862 1807.711426,1851.676147 1824.151123,1823.805908 
	C1842.150757,1793.291138 1857.088989,1761.427246 1866.981445,1727.453003 
	C1872.704468,1707.797852 1876.960815,1687.661011 1880.825195,1667.538940 
	C1883.292725,1654.689941 1883.836792,1641.471436 1885.621582,1628.209229 
	C1886.000000,1817.609985 1886.000000,2007.220093 1886.000000,2197.000000 
	C1587.979126,2197.000000 1289.958252,2197.000000 991.468628,2197.000000 
z"/>
<path fill="#FFFFFF" opacity="1.000000" stroke="none" 
	d="
M0.999998,1625.468628 
	C1.332911,1626.176392 1.825131,1627.333008 1.974667,1628.532349 
	C3.981046,1644.620972 5.695152,1660.750244 7.966912,1676.800781 
	C11.430676,1701.273193 18.517815,1724.840332 26.987314,1747.981201 
	C36.948135,1775.196655 49.126080,1801.416504 64.572861,1825.966675 
	C74.736069,1842.119507 85.217361,1858.117676 96.434761,1873.546387 
	C104.630424,1884.818970 114.043320,1895.240601 123.306091,1905.693848 
	C132.526886,1916.099609 141.618408,1926.750977 151.867828,1936.085449 
	C170.474808,1953.031738 189.712723,1969.303467 209.027176,1985.450195 
	C234.041428,2006.361694 261.151764,2024.473877 289.455811,2040.434082 
	C318.038788,2056.551514 347.555603,2071.083252 377.104645,2085.399170 
	C414.553162,2103.541992 453.528595,2118.125000 493.235992,2130.388672 
	C528.208923,2141.190430 563.626465,2150.632080 599.084229,2159.754395 
	C619.736816,2165.067871 640.800842,2168.859375 661.781006,2172.795654 
	C677.034729,2175.657715 692.451172,2177.655518 707.800476,2180.003418 
	C720.889282,2182.006104 733.957642,2184.176270 747.087585,2185.864258 
	C757.676636,2187.225586 768.346008,2187.957031 778.975952,2189.006348 
	C792.049377,2190.296143 805.115784,2191.658203 818.191895,2192.920654 
	C822.948975,2193.380127 827.720154,2193.752441 832.493774,2193.970947 
	C841.591064,2194.387695 850.695129,2194.656006 859.795654,2195.002686 
	C870.389282,2195.405762 880.982239,2195.826904 891.787720,2196.620117 
	C595.088806,2197.000000 298.177582,2197.000000 1.000000,2197.000000 
	C1.000000,2006.645874 1.000000,1816.291504 0.999998,1625.468628 
z"/>
<path fill="#FFFFFF" opacity="1.000000" stroke="none" 
	d="
M982.531372,1.000001 
	C982.323608,1.329080 981.654846,1.928186 980.969788,1.947392 
	C967.043823,2.337816 953.115906,2.924035 939.188660,2.916630 
	C927.933777,2.910646 916.679260,2.173239 905.212280,1.380147 
	C930.687561,1.000000 956.375122,1.000000 982.531372,1.000001 
z"/>
<path fill="#CCEAF5" opacity="1.000000" stroke="none" 
	d="
M1226.583130,996.577820 
	C1192.005005,1046.024902 1150.851685,1088.149170 1099.246094,1119.408447 
	C1059.950562,1143.210938 1017.594177,1158.271484 971.774719,1162.626465 
	C957.087280,1164.022461 942.137146,1164.819458 927.459778,1163.765625 
	C875.579163,1160.040283 827.563110,1143.988525 783.482971,1116.246216 
	C732.435608,1084.118896 691.625793,1041.638306 658.023865,991.968079 
	C611.882935,923.762695 582.747314,848.502014 565.926880,768.194031 
	C558.682800,733.607727 553.996338,698.687134 551.886230,663.415222 
	C551.778320,661.611633 551.110779,659.835205 551.058655,658.035889 
	C550.921326,653.296265 552.002686,649.008728 553.619629,644.342896 
	C557.397156,633.442993 560.896057,621.963989 561.527405,610.554565 
	C562.942444,584.986572 563.595337,559.277405 562.611328,533.700623 
	C561.397339,502.149048 558.009094,470.686005 556.007568,439.156342 
	C555.505554,431.247803 556.526123,423.211670 557.334778,415.283966 
	C557.457520,414.080597 560.162415,412.382355 561.812378,412.204132 
	C601.181458,407.951233 639.504822,399.059753 676.951599,386.339264 
	C758.374146,358.680389 831.704224,316.309082 899.118103,263.370300 
	C914.553955,251.248871 929.273071,238.214645 944.441833,225.500137 
	C1055.848755,324.308746 1181.120361,395.601532 1332.346558,413.077240 
	C1336.734741,424.207336 1332.624756,435.279755 1331.692871,446.378296 
	C1329.674194,470.421906 1326.645020,494.400116 1325.309692,518.476074 
	C1324.031128,541.527405 1323.587280,564.692017 1324.278198,587.761963 
	C1324.738281,603.131409 1327.390381,618.497498 1329.989014,633.706604 
	C1330.882568,638.935242 1334.637573,643.659790 1336.967041,648.669739 
	C1337.494019,649.803101 1337.876465,651.205627 1337.737915,652.416931 
	C1334.163452,683.645874 1331.786011,715.079468 1326.599243,746.041748 
	C1316.686768,805.214050 1298.619629,862.043396 1272.865967,916.327515 
	C1259.640503,944.204468 1244.390381,970.923401 1226.583130,996.577820 
z"/>
<path fill="#CCEAF5" opacity="1.000000" stroke="none" 
	d="
M55.732128,1596.951782 
	C55.663639,1560.519287 60.275055,1524.655396 68.748154,1489.252197 
	C85.547676,1419.059204 117.670197,1356.505615 163.044937,1300.628418 
	C214.386307,1237.403564 277.491638,1188.479492 348.333679,1149.082886 
	C413.239746,1112.987305 482.061279,1086.629761 553.557739,1066.985107 
	C554.965942,1066.598145 556.406433,1066.328735 558.405029,1065.874146 
	C560.244934,1075.935303 561.930359,1085.701904 563.826111,1095.427734 
	C574.737427,1151.404053 585.202576,1207.473389 596.752991,1263.317993 
	C616.593323,1359.243042 639.717957,1454.397949 665.977783,1548.775024 
	C700.828979,1674.029297 740.869934,1797.510010 792.949463,1916.815918 
	C822.294128,1984.040039 855.321350,2049.338623 896.295532,2110.356689 
	C904.181641,2122.100342 912.763489,2133.376953 921.015991,2144.874756 
	C921.681580,2145.802002 922.282349,2146.775635 923.708801,2148.927979 
	C917.927917,2148.927979 913.067505,2149.018799 908.212708,2148.891846 
	C905.582458,2148.822998 902.966797,2148.213379 900.336243,2148.138672 
	C885.221436,2147.708984 870.062012,2147.949707 854.997070,2146.862793 
	C829.966614,2145.057373 804.946167,2142.857666 780.014099,2140.012451 
	C752.749268,2136.900635 725.517456,2133.333740 698.398865,2129.139893 
	C637.491882,2119.720459 577.637512,2105.618408 518.876404,2087.006836 
	C440.167847,2062.077637 364.910828,2029.525391 295.194946,1984.892700 
	C257.477539,1960.745483 222.330536,1933.274902 190.588837,1901.667114 
	C136.678116,1847.983887 95.134460,1786.424072 72.556343,1713.088867 
	C61.715740,1677.878052 55.846569,1641.865234 55.711998,1604.238647 
	C55.528671,1603.350586 55.453743,1603.188232 55.378815,1603.025879 
	C55.432034,1601.636108 55.485256,1600.246216 55.646885,1598.182617 
	C55.747570,1597.322998 55.739849,1597.137329 55.732128,1596.951782 
z"/>
<path fill="#CCEAF5" opacity="1.000000" stroke="none" 
	d="
M1831.277832,1581.269531 
	C1831.322998,1592.804321 1831.368164,1604.339233 1831.281006,1616.643066 
	C1831.141357,1617.659912 1831.134033,1617.907471 1831.126709,1618.155029 
	C1829.583862,1663.760742 1819.167847,1707.395020 1801.595337,1749.367920 
	C1780.381348,1800.038574 1749.784302,1844.567383 1712.317261,1884.525757 
	C1660.458130,1939.832764 1599.203857,1982.522461 1532.544678,2017.829834 
	C1455.813477,2058.471924 1374.622070,2087.260254 1290.457153,2107.997314 
	C1237.747314,2120.984131 1184.474243,2131.037354 1130.519043,2137.008545 
	C1097.113647,2140.705566 1063.587402,2143.389160 1030.074219,2145.999512 
	C1013.221069,2147.312256 996.274536,2147.411621 979.373413,2148.134521 
	C973.131531,2148.401123 966.898743,2148.881104 959.584595,2149.330078 
	C961.903076,2144.401611 963.501160,2140.460938 965.535889,2136.760254 
	C999.777161,2074.483398 1035.109863,2012.778931 1068.046997,1949.821045 
	C1097.371216,1893.768921 1120.462280,1834.790894 1142.922974,1775.669434 
	C1187.392212,1658.616089 1223.700562,1538.997070 1254.998169,1417.812012 
	C1275.504517,1338.411133 1293.706421,1258.481079 1309.643555,1178.045898 
	C1316.851562,1141.666504 1323.219727,1105.120605 1329.975098,1068.651489 
	C1330.121826,1067.859985 1330.344360,1067.082520 1330.681152,1065.670898 
	C1339.664917,1068.176758 1348.459717,1070.520630 1357.190552,1073.082520 
	C1435.966187,1096.197021 1511.256348,1127.281250 1580.927734,1171.161621 
	C1621.827515,1196.921143 1659.655029,1226.564941 1693.383545,1261.245728 
	C1760.068970,1329.813843 1804.253052,1410.436523 1822.706665,1504.629150 
	C1827.511475,1529.154419 1830.567261,1553.935669 1831.098389,1579.781738 
	C1831.152832,1580.817749 1831.215332,1581.043579 1831.277832,1581.269531 
M1567.920898,1488.583984 
	C1567.918579,1488.356934 1567.916138,1488.129883 1567.893799,1486.977905 
	C1567.893799,1454.098999 1567.893799,1421.219971 1567.893799,1387.943970 
	C1532.681396,1390.953979 1497.111816,1393.994507 1461.425171,1397.045166 
	C1460.916504,1403.243652 1460.322266,1408.821411 1460.031250,1414.414917 
	C1459.583008,1423.031982 1459.352905,1431.660400 1459.011719,1440.283203 
	C1458.348877,1457.030640 1457.600342,1473.774902 1457.025391,1490.525269 
	C1456.535522,1504.796387 1456.308350,1519.076294 1455.822998,1533.347534 
	C1455.638916,1538.760498 1455.057251,1544.159912 1454.633423,1549.879761 
	C1405.454590,1554.493530 1356.451416,1559.090942 1306.838257,1563.745605 
	C1305.309570,1601.979370 1303.796631,1639.816406 1302.258667,1678.283203 
	C1352.356201,1674.155518 1401.956177,1670.068848 1451.912964,1665.952759 
	C1449.844727,1717.189453 1447.807617,1767.657349 1445.746216,1818.722412 
	C1484.334961,1815.590698 1522.024902,1812.531860 1559.611572,1809.481323 
	C1560.075195,1803.832275 1560.710815,1798.898071 1560.844116,1793.950439 
	C1561.287109,1777.501099 1561.564209,1761.047119 1561.877930,1744.594482 
	C1562.229614,1726.143188 1562.576172,1707.691528 1562.876587,1689.239380 
	C1563.023071,1680.243774 1563.233154,1671.243286 1563.073608,1662.251099 
	C1562.993408,1657.731201 1564.781860,1656.088013 1569.182251,1655.990845 
	C1574.497192,1655.873535 1579.803467,1655.226807 1585.106445,1654.732422 
	C1620.073608,1651.472656 1655.040039,1648.203735 1690.004028,1644.908569 
	C1697.568481,1644.195679 1705.121948,1643.364380 1712.951782,1642.559692 
	C1713.491089,1604.593018 1714.023682,1567.099609 1714.573608,1528.386597 
	C1665.294067,1532.438599 1616.355347,1536.462524 1567.724976,1540.461182 
	C1567.724976,1522.800659 1567.724976,1506.018555 1567.920898,1488.583984 
z"/>
<path fill="#EEEEED" opacity="1.000000" stroke="none" 
	d="
M855.213623,1562.220215 
	C847.019714,1594.910889 840.526001,1627.518677 836.383057,1660.551270 
	C834.502747,1675.543335 832.781677,1690.606445 832.108398,1705.687256 
	C830.945374,1731.739136 829.533752,1757.863159 830.305115,1783.895386 
	C831.134216,1811.873779 834.330627,1839.783325 836.559021,1867.717651 
	C836.961853,1872.766602 837.678955,1877.790405 838.250977,1882.825806 
	C837.860779,1882.935547 837.470520,1883.045288 837.080261,1883.155029 
	C836.046265,1880.817261 834.974609,1878.495483 833.983826,1876.139526 
	C792.035278,1776.395020 758.067505,1673.886719 728.061523,1570.011597 
	C699.121826,1469.827759 673.755066,1368.721558 652.499329,1266.652588 
	C637.653381,1195.363037 624.781494,1123.660767 611.247925,1052.101196 
	C608.409363,1037.092163 606.533264,1021.901123 604.874207,1006.325012 
	C606.047913,1007.985718 607.274902,1009.611572 608.387329,1011.312317 
	C632.305542,1047.879272 660.103943,1081.160522 692.642883,1110.377930 
	C745.709839,1158.027954 806.194580,1191.453979 876.660522,1205.320435 
	C889.694214,1207.885132 902.937500,1209.825073 916.176208,1210.793091 
	C931.553467,1211.917480 947.101074,1212.756836 962.455261,1211.801025 
	C1030.460815,1207.567871 1092.409668,1185.400513 1148.485962,1146.829224 
	C1200.363525,1111.145752 1242.683594,1066.155884 1277.302246,1013.737366 
	C1279.015869,1011.142578 1280.845703,1008.624695 1283.442627,1006.316223 
	C1262.366211,1151.533813 1231.657715,1294.702271 1194.317017,1436.490723 
	C1156.945435,1578.396484 1112.203613,1717.839478 1053.636230,1852.905273 
	C1053.447021,1851.931152 1053.009766,1850.930664 1053.109619,1849.987061 
	C1053.666748,1844.719482 1054.598511,1839.481812 1054.940063,1834.203857 
	C1055.485107,1825.780151 1055.720947,1817.334839 1055.992554,1808.895508 
	C1056.647949,1788.520996 1058.060791,1768.131104 1057.717041,1747.771729 
	C1056.726440,1689.104370 1049.888184,1631.059937 1035.384277,1574.149780 
	C1025.780762,1536.467529 1014.740845,1499.153320 1004.579468,1461.610596 
	C1000.445007,1446.335205 997.204346,1430.863892 997.869690,1414.849243 
	C998.519897,1399.199463 1004.534485,1386.115356 1017.747986,1377.567627 
	C1068.134399,1344.972656 1096.466431,1297.146973 1113.052856,1241.061401 
	C1114.736572,1235.367920 1115.971924,1229.541870 1117.686890,1222.693604 
	C1107.787109,1227.690552 1099.024536,1232.258179 1090.139404,1236.573242 
	C1052.437256,1254.883545 1013.462280,1269.521851 971.943115,1276.455078 
	C961.653748,1278.173218 950.986206,1280.680664 940.845642,1279.578003 
	C921.748718,1277.501709 902.664917,1274.042480 884.013367,1269.399658 
	C846.546509,1260.073120 811.412537,1244.523682 777.355164,1226.498169 
	C775.162598,1225.337402 772.955017,1224.205078 769.727661,1222.524902 
	C771.285950,1228.981567 772.441040,1234.577148 773.991516,1240.060913 
	C784.446899,1277.041016 800.887634,1310.927368 826.165222,1340.184326 
	C837.667847,1353.497803 850.536255,1365.375244 865.542297,1374.585083 
	C885.699280,1386.956177 891.826111,1405.340454 889.536499,1427.626953 
	C886.627014,1455.947876 877.136658,1482.695190 869.639282,1509.916260 
	C864.873535,1527.219849 860.092224,1544.519043 855.213623,1562.220215 
z"/>
<path fill="#9DCDD0" opacity="1.000000" stroke="none" 
	d="
M1831.356934,1581.096924 
	C1831.215332,1581.043579 1831.152832,1580.817749 1831.088623,1580.239990 
	C1831.203369,1580.233643 1831.319824,1580.578857 1831.356934,1581.096924 
z"/>
<path fill="#5DB0A7" opacity="1.000000" stroke="none" 
	d="
M55.626991,1597.060547 
	C55.739849,1597.137329 55.747570,1597.322998 55.644615,1597.764648 
	C55.364792,1597.740967 55.360764,1597.457153 55.626991,1597.060547 
z"/>
<path fill="#5DB0A7" opacity="1.000000" stroke="none" 
	d="
M55.315956,1603.161621 
	C55.453743,1603.188232 55.528671,1603.350586 55.624313,1603.780518 
	C55.363251,1603.875732 55.232609,1603.625366 55.315956,1603.161621 
z"/>
<path fill="#9DCDD0" opacity="1.000000" stroke="none" 
	d="
M1831.273682,1618.005615 
	C1831.134033,1617.907471 1831.141357,1617.659912 1831.237061,1617.050293 
	C1831.409912,1616.947632 1831.521118,1617.202271 1831.566650,1617.468262 
	C1831.586792,1617.585693 1831.473511,1617.726074 1831.273682,1618.005615 
z"/>
<path fill="#31A394" opacity="1.000000" stroke="none" 
	d="
M1567.724976,1489.236328 
	C1567.724976,1506.018555 1567.724976,1522.800659 1567.724976,1540.461182 
	C1616.355347,1536.462524 1665.294067,1532.438599 1714.573608,1528.386597 
	C1714.023682,1567.099609 1713.491089,1604.593018 1712.951782,1642.559692 
	C1705.121948,1643.364380 1697.568481,1644.195679 1690.004028,1644.908569 
	C1655.040039,1648.203735 1620.073608,1651.472656 1585.106445,1654.732422 
	C1579.803467,1655.226807 1574.497192,1655.873535 1569.182251,1655.990845 
	C1564.781860,1656.088013 1562.993408,1657.731201 1563.073608,1662.251099 
	C1563.233154,1671.243286 1563.023071,1680.243774 1562.876587,1689.239380 
	C1562.576172,1707.691528 1562.229614,1726.143188 1561.877930,1744.594482 
	C1561.564209,1761.047119 1561.287109,1777.501099 1560.844116,1793.950439 
	C1560.710815,1798.898071 1560.075195,1803.832275 1559.611572,1809.481323 
	C1522.024902,1812.531860 1484.334961,1815.590698 1445.746216,1818.722412 
	C1447.807617,1767.657349 1449.844727,1717.189453 1451.912964,1665.952759 
	C1401.956177,1670.068848 1352.356201,1674.155518 1302.258667,1678.283203 
	C1303.796631,1639.816406 1305.309570,1601.979370 1306.838257,1563.745605 
	C1356.451416,1559.090942 1405.454590,1554.493530 1454.633423,1549.879761 
	C1455.057251,1544.159912 1455.638916,1538.760498 1455.822998,1533.347534 
	C1456.308350,1519.076294 1456.535522,1504.796387 1457.025391,1490.525269 
	C1457.600342,1473.774902 1458.348877,1457.030640 1459.011719,1440.283203 
	C1459.352905,1431.660400 1459.583008,1423.031982 1460.031250,1414.414917 
	C1460.322266,1408.821411 1460.916504,1403.243652 1461.425171,1397.045166 
	C1497.111816,1393.994507 1532.681396,1390.953979 1567.893799,1387.943970 
	C1567.893799,1421.219971 1567.893799,1454.098999 1567.793945,1487.584229 
	C1567.704468,1488.539185 1567.714722,1488.887817 1567.724976,1489.236328 
z"/>
<path fill="#99CBCC" opacity="1.000000" stroke="none" 
	d="
M1567.822998,1488.910156 
	C1567.714722,1488.887817 1567.704468,1488.539185 1567.803955,1488.046875 
	C1567.916138,1488.129883 1567.918579,1488.356934 1567.822998,1488.910156 
z"/>
</svg>